<svg xmlns="http://www.w3.org/2000/svg" version="1.1" viewBox="0 0 1024 1024" width="20" height="20">
  <path
    d="M140.09720029 126.7866749l743.80919766 0 0 83.78629278L140.09720029 210.57296768 140.09720029 126.7866749 140.09720029 126.7866749zM819.25732988 625.53362451L819.25732988 297.97840654 204.74177099 297.97840654 204.74177099 625.53362451 819.25732988 625.53362451 819.25732988 625.53362451zM293.8704418 381.71073623l437.18728711 0 0 160.13552783L293.8704418 541.84626406 293.8704418 381.71073623 293.8704418 381.71073623zM686.31936172 814.33541622c26.7397708-40.93214766 51.97216289-88.40286299 75.35540918-142.2871295l-89.38589678-32.58130957c-23.24024297 63.84951035-50.32537911 122.23162705-81.1151042 174.86753994L435.60444658 814.33451709c-25.80710273-68.21694932-54.88888535-126.55589502-87.53135361-174.86753995l-82.21325977 32.58130958c33.91600518 50.8722082 61.23228487 98.22780175 82.21325977 142.28712949L119.02898427 814.33541622l0 82.87790888 785.94113233 0 0-82.87790888L686.31936172 814.33541622 686.31936172 814.33541622zM686.31936172 814.33541622"
    fill="#339B43" />
</svg>
