<svg xmlns="http://www.w3.org/2000/svg" version="1.1" viewBox="0 0 1024 1024" width="20" height="20">
  <path
    d="M867.3125 434H468.6875c-19.125 0-34.6875 15.46875-34.6875 34.6875v86.625c0 19.125 15.46875 34.6875 34.6875 34.6875h242.71875c19.125 0 34.6875 15.5625 34.6875 34.6875v17.25c0 57.46875-46.59375 103.96875-103.96875 103.96875H312.6875c-19.125 0-34.6875-15.5625-34.6875-34.6875V381.875c0-57.46875 46.59375-103.96875 103.96875-103.96875h485.25c19.125 0 34.6875-15.46875 34.6875-34.6875l0.09375-86.53125c0-19.125-15.46875-34.6875-34.6875-34.6875H381.96875C238.4375 122 122 238.4375 122 381.96875V867.3125c0 19.125 15.5625 34.6875 34.6875 34.6875h511.3125C797.1875 902 902 797.28125 902 668V468.6875c0-19.125-15.5625-34.6875-34.6875-34.6875z"
    fill="#d81e06"/>
</svg>
