<svg xmlns="http://www.w3.org/2000/svg" version="1.1" viewBox="0 0 1024 1024" width="20" height="20">
  <path
    d="M855.557 216.85499999c35.621-66.153-5.089-152.661-5.08899999-152.66099999-91.597 0-157.75 61.064-157.75000002 61.064-35.621-20.35500001-152.661-20.35500001-152.66099999-20.35499999s-117.04 0-152.66100001 20.35499999c0 0-66.153-61.064-157.74999997-61.064 0 0-40.71 86.50799999-5.08900002 152.66099999 0 0-81.41900001 76.331-50.887 239.16900001 28.691 153.01800001 162.83800001 193.371 249.346 193.37100001 0 0-35.621 30.53200002-30.53200001 81.41899999 0 0-50.887 30.53200002-101.77399999 10.177s-76.331-71.24199999-76.331-71.242-50.887-66.153-101.77399999-40.71c0 0-15.266 15.266 40.70999999 40.71 0 0 40.71 61.064 55.976 96.68499999 15.266 35.621 96.68500001 66.153 178.10499999 45.798v117.04s0 10.177-20.35499999 15.26600001-20.35500001 15.266-10.177 15.26600001H723.25c10.177 0 10.177-10.177-10.177-15.26600001-20.35500001-5.089-20.35500001-15.266-20.35500001-15.26600001v-117.04s0.447-61.02999999 0-81.419c-1.119-51.12800002-35.621-81.41900001-35.62099999-81.41899999 86.50799999 0 220.655-40.353 249.346-193.371 30.533-162.837-50.88600001-239.16800001-50.886-239.16800001z"
    fill="#333303"/>
</svg>
