<svg xmlns="http://www.w3.org/2000/svg" version="1.1" viewBox="0 0 1024 1024" width="20" height="20">
  <path
    d="M669.926375 828.0366875c-27.867375 15.170625-58.536 26.7553125-92.1223125 34.71525-33.7314375 7.90425-69.282 11.8918125-106.9486875 11.8918125-115.327125 0-207.6316875-35.5708125-276.8428125-106.747875C124.766 696.70025 90.125 601.75475 90.125 482.8585625c0-64.91475 10.5975-123.08625 31.654125-174.3373125 21.20175-51.3253125 52.7799375-95.11425 94.7109375-131.3735625 33.6200625-28.998 71.685-50.8156875 114.159375-65.3146875C373.0866875 97.317125 419.8574375 90.125 470.781125 90.125c115.003125 0 207.194625 35.7345 276.6268125 107.2220625 69.3916875 71.5246875 104.1069375 166.70475 104.1069375 285.5115 0 49.7593125-5.7931875 94.7818125-17.34075 135.03375-11.5441875 40.233375-29.43 76.6243125-53.6203125 109.0411875 21.6388125 19.035 45.279 34.1533125 70.9610625 45.3549375 25.6449375 11.2539375 53.109 18.430875 82.360125 21.5071875l-56.3540625 133.7056875c-42.616125-4.15125-81.4134375-14.5884375-116.2704375-31.343625-34.8249375-16.76025-65.3146875-39.4689375-91.324125-68.121m-199.14525-110.40975c59.778 0 106.295625-20.6533125 139.8076875-61.9228125 33.402375-41.272875 50.15925-98.8993125 50.15925-172.8455625 0-73.9125-16.8294375-131.6840625-50.486625-173.3180625-33.6234375-41.6356875-80.1039375-62.434125-139.4803125-62.434125-58.9359375 0-105.3826875 21.0009375-139.185 62.9454375-33.8056875 41.981625-50.7448125 99.5895-50.7448125 172.8084375 0 73.2695625 16.8294375 130.6985625 50.452875 172.33425 33.6943125 41.6525625 80.1748125 62.4324375 139.4769375 62.4324375"
    fill="#09843C"/>
</svg>
