<svg xmlns="http://www.w3.org/2000/svg" version="1.1" viewBox="0 0 1024 1024" width="20" height="20">
  <path
    d="M146.9999999 439.1666668h93.49999981v489.16666669H146.9999999V439.1666668z m52.83333369-148.5c23.50000019 43.49999971 38.49999961 86.8333333 45.66666622 130.5h102.00000058c-14.0000001-55.66666641-31.5-99-52.6666667-130.5h-95.0000001z"
    fill="#E58E7F"/>
  <path
    d="M401.00000029 203.83333349h112.5v-61.66666669H309.66666699c2.33333349-4.8333331 5.8333333-13.33333301 10.49999942-25.3333336 2.33333349-9.8333332 4.8333331-16.83333369 7.00000049-21.83333291H221.66666651c-16.33333359 65.16666651-53.833333 113.50000019-112.5 144.99999932v61.6666667c77.3333332-19.3333333 132.33333339-51.83333349 165.00000058-97.6666667h34.99999981c11.83333359 31.33333301 18.8333332 61.6666667 20.99999971 90.66666709H428.66666651c-6.66666651-33.99999961-16.16666661-64.3333333-27.66666622-90.83333321z m-45.8333332 195.49999952H778.66666631v398.50000048c2.33333349 36.3333331-14.0000001 53.1666668-49.16666602 50.66666632h-58.1666669v72.3333331h84.3333337c81.8333332 2.49999961 121.66666699-34.9999998 119.49999961-112.5V326.9999999h-519.99999961v72.33333311z"
    fill="#E58E7F"/>
  <path
    d="M685.49999961 464.83333349H341.16666699v365.99999942h239.0000001c74.83333359 2.49999961 110.16666651-33.83333349 105.49999952-108.66666621V464.83333349z m-249.33333252 64.99999952h154.49999942v83.3333335h-154.49999942v-83.3333335zM545.00000029 765.3333333h-109.00000019v-90.5000001h154.50000029v43.49999971c2.33333349 33.66666651-12.6666668 49.5-45.5000001 47.00000039z m144.16666612-626.6666663c0-2.49999961 1.3333333-6.00000029 3.50000068-10.83333341l10.49999942-32.50000019h-105.49999952c-16.49999971 67.666667-52.6666667 118.50000029-109.00000019 152.33333291v57.83333379c72.66666709-19.3333333 127.66666641-53.1666668 164.99999971-101.50000049h49.16666688c11.83333359 31.33333301 18.8333332 61.6666667 20.99999971 90.66666709h95.0000001c-2.33333349-24.00000029-11.83333359-54.3333331-28.0000002-90.66666709h123.0000003V138.8333331H689.16666641V138.66666699z"
    fill="#E58E7F"/>
</svg>
