<svg xmlns="http://www.w3.org/2000/svg" version="1.1" viewBox="0 0 1024 1024" width="20" height="20">
  <path
    d="M353.2596875 589.814375M875.9384375 392.9571875L724.29875 544.6015625c-33.5015625 33.4978125-87.8146875 33.4978125-121.31625 0l-30.328125-30.331875 60.65625-60.6515625c16.753125 16.7446875 43.906875 16.7446875 60.66 0l90.9834375-90.988125c16.7484375-16.7484375 16.7484375-43.906875 0-60.65625l-90.9834375-90.9834375c-16.753125-16.753125-43.906875-16.753125-60.66 0l-90.9834375 90.9834375c-16.7484375 16.7484375-16.7484375 43.906875 0 60.65625l-60.65625 60.65625-30.328125-30.328125c-33.5015625-33.4978125-33.5015625-87.8146875 0-121.3115625L602.9825 120.0059375c33.5015625-33.5015625 87.8146875-33.5015625 121.31625 0l151.6396875 151.6396875C909.44 305.1425 909.44 359.459375 875.9384375 392.9571875zM390.6865625 574.9296875l212.2959375-212.2996875 30.328125 30.328125L421.0146875 605.253125 390.6865625 574.9296875zM390.6865625 514.26875c-16.7484375-16.7484375-43.906875-16.7484375-60.65625 0l-90.988125 90.9834375c-16.7484375 16.753125-16.7484375 43.906875 0 60.66l90.988125 90.9834375c16.7484375 16.7484375 43.906875 16.7484375 60.65625 0l90.9834375-90.9834375c16.7484375-16.753125 16.7484375-43.906875 0-60.66l60.65625-60.65625 30.328125 30.331875c33.5015625 33.4978125 33.5015625 87.81 0 121.3115625L421.0146875 847.8809375c-33.4978125 33.4978125-87.8146875 33.4978125-121.3115625 0L148.05875 696.24125c-33.4978125-33.5015625-33.4978125-87.8146875 0-121.3115625l151.644375-151.644375c33.4978125-33.4978125 87.8146875-33.4978125 121.3115625 0l30.328125 30.328125L390.6865625 514.26875z"
    fill="#617E86"/>
</svg>
