<svg xmlns="http://www.w3.org/2000/svg" version="1.1" viewBox="0 0 1024 1024" width="20" height="20">
  <path
    d="M662.18319885 568.99076004c-22.93967724 55.91546329-77.42141071 96.05989764-141.93925213 96.05989848-84.59005985 0-152.69222625-68.10216641-152.69222626-152.69222627S435.65388687 359.66620681 520.24394672 359.66620681c66.66843659 0 124.0176297 43.01189484 144.08984647 103.22854679L901.61607929 381.17215342c-54.48173346-158.42714557-205.02336456-272.40866648-381.37213258-272.40866565C297.29895889 108.04662244 116.6490014 288.69657993 116.6490014 511.64156775s180.64995749 403.59494449 403.59494531 403.59494448c169.89698419 0 314.70369599-104.66227661 374.92034794-253.05331338l-232.9810958-93.19243881z"
    fill="#3BAC56"/>
  <path
    d="M520.24394672 933.875C287.97971543 933.875 98.72737896 744.62266355 98.72737896 511.64156775 98.72737896 279.37733645 287.97971543 90.125 520.24394672 90.125c179.93309299 0 339.79396756 113.9815209 398.57689049 283.87850427l5.73491933 17.20475794-270.97493665 93.90930331-5.73491931-17.20475793C629.20741281 413.43107495 577.59313901 376.87096393 520.24394672 376.87096393 445.68999567 376.87096393 385.47334289 437.0876167 385.47334289 511.64156775s60.21665277 134.770603 134.77060382 134.770603c55.19859797 0 104.66227661-32.97578603 125.45135953-84.59005984l6.45178382-16.48789262 265.95688183 106.81287177-6.45178381 16.4878926c-64.51784226 161.29460523-217.92693301 265.24001734-391.40824136 265.24001734zM520.24394672 125.9682457C307.33506769 125.9682457 134.57062467 298.73268872 134.57062467 511.64156775c0 212.90887821 172.76444385 385.67332205 385.67332204 385.67332205 152.69222625 0 288.17969376-88.174384 351.26380619-225.81244748L671.50244233 591.93043728c-29.39146106 55.91546329-86.74065417 91.04184366-151.25849561 91.04184367C426.3346434 682.97228095 349.63009802 606.26773557 349.63009802 511.64156775 349.63009802 417.73226443 426.3346434 341.02771905 520.24394672 341.02771905c66.66843659 0 126.88508935 38.71070535 154.84282059 98.21049281l203.58963472-70.25276158C820.61034442 222.74500867 678.67109146 125.9682457 520.24394672 125.9682457z"
    fill="#08633B"/>
</svg>
