<svg xmlns="http://www.w3.org/2000/svg" version="1.1" viewBox="0 0 1024 1024" width="20" height="20">
  <path
    d="M147.11 755.6440625c35.385 32.049375 86.244375 60.815625 134.9034375 60.815625 35.385 0 75.18375-15.4828125 75.18375-57.5053125 0-46.434375-54.1828125-54.174375-114.995625-80.7196875-68.5546875-29.86125-126.0590625-66.339375-126.0590625-153.703125 0-113.8903125 91.7803125-162.5371875 205.66875-162.5371875 61.921875 0 128.2734375 14.3821875 175.81125 45.3346875v13.2628125l-44.2284375 87.36375c-30.95625-23.2171875-72.980625-38.694375-119.4253125-38.694375-40.90875 0-66.339375 16.575-66.339375 48.645 0 42.005625 48.658125 50.8621875 109.471875 74.0803125 84.0309375 32.0728125 134.8921875 67.4559375 134.8921875 157.0115625 0 117.200625-91.77 168.0815625-213.3984375 168.0815625-77.409375 0-139.33125-21.020625-197.930625-65.2415625v-13.261875l46.4446875-82.9340625z"
    fill="#009A61"/>
  <path
    d="M646.83125 915.9453125c0-11.2153125 2.2228125-316.4165625 3.3365625-421.8871875-30.255 1.11375-61.711875 1.11375-70.6546875 1.11375l1.11375-113.325c8.986875 0 39.286875 0 68.4290625 1.11375 0-4.494375-2.2228125-97.6190625-2.2228125-100.9790625 0-126.781875 74.0371875-173.9240625 170.540625-173.9240625 41.5134375 0 84.135 6.740625 126.8071875 24.69375v16.8178125l-32.56875 89.7646875c-17.9334375-10.100625-38.131875-15.7059375-56.1065625-15.7059375-31.4109375 0-51.6121875 15.7059375-51.6121875 75.170625 0 20.1984375 1.1559375 79.665 1.1559375 84.1603125 33.6384375-1.11375 97.6190625-1.11375 106.5628125-1.11375l-1.11375 113.325c-8.98875 0-72.9253125 0-106.6059375-1.11375 2.2678125 105.4696875 2.2678125 410.671875 2.2678125 421.8871875h-159.33z"
    fill="#009A61"/>
</svg>
