<svg xmlns="http://www.w3.org/2000/svg" version="1.1" viewBox="0 0 1024 1024" width="20" height="20">
  <path
    d="M177.47512889 177.47512889c6.29873778-0.69176889 12.64602075-0.13349925 18.96903111-0.25486222H827.5437037c6.32301037 0.12136297 12.68242963-0.43690667 18.99330371 0.25486222 0.6674963 17.63403852 0.0121363 35.31662222 0.24272592 52.96279703 0 199.03525925-0.0121363 398.07051852 0 597.10577778-0.13349925 6.32301037 0.43690667 12.67029333-0.24272592 18.98116741-13.59265185 0.71604148-27.23384889 0-40.83863704 0.25486222H196.4562963c-6.32301037-0.12136297-12.68242963 0.43690667-18.99330371-0.25486222-0.6674963-16.42040889-0.02427259-32.88936297-0.24272592-49.32190814 0.0121363-38.0230163-0.02427259-76.05816889 0.0121363-114.08118519 0.18204445-8.38618075-0.47331555-16.79663408 0.18204444-25.15854223 5.50987852-0.74031408 11.08043852-0.3398163 16.61458962-0.37622518 19.41807408 0.02427259 38.83614815 0.0121363 58.25422222 0 5.57056 0.04854518 11.17752889-0.38836148 16.71168 0.3398163 0.67963259 5.12151703 0.3155437 10.31585185 0.3519526 15.48591408-0.07281778 21.84533333 0.02427259 43.69066667-0.03640888 65.536 0.0121363 5.13365333-0.36408889 10.31585185 0.3034074 15.43736888 5.92251259 0.74031408 11.90570667 0.21845333 17.86462815 0.29127112 146.84918518-0.02427259 293.69837037 0.0121363 440.54755556-0.0121363 8.77454222-0.23058963 17.59762963 0.58254222 26.34789925-0.29127112 0.84954075-12.39115852 0.02427259-24.85513482 0.29127112-37.27056592 0.0121363-142.80779852 0-285.61559703 0.0121363-428.41125926-0.10922667-6.35941925 0.47331555-12.74311111-0.30340742-19.06612148-6.32301037-0.77672297-12.71883852-0.20631703-19.06612148-0.30340742-154.13096297 0-308.27406222 0.0121363-462.40502518-0.01213628-0.81313185 0.07281778-2.46366815 0.23058963-3.2768 0.3034074-0.67963259 5.12151703-0.30340741 10.29157925-0.32768 15.43736888 0.07281778 21.84533333-0.02427259 43.69066667 0.04854518 65.536-0.03640889 5.15792592 0.32768 10.35226075-0.3519526 15.49805038-5.54628741 0.70390518-11.14112 0.26699852-16.71168 0.32768-19.41807408-0.0121363-38.83614815-0.02427259-58.25422222 0.01213629-5.53415111-0.06068148-11.10471111 0.36408889-16.60245333-0.38836147-0.54613333-20.91083852-0.02427259-41.85808592-0.20631703-62.78106075-0.0121363-36.82152297 0.02427259-73.63090963-0.0121363-110.44029629 0.04854518-5.10938075-0.35195259-10.24303408 0.26699852-15.34027852z"
    fill="#72aee2"/>
  <path
    d="M177.4265837 463.80676741c5.9103763-0.77672297 11.88143408-0.27913482 17.81608297-0.32768 18.60494222 0.0121363 37.22202075 0.0121363 55.82696296 0 5.97105778 0.06068148 11.96638815-0.46117925 17.91317334 0.29127111 0.72817778 5.52201482 0.30340741 11.11684741 0.35195258 16.67527111-0.02427259 21.03220148-0.02427259 42.07653925 0 63.10874074-0.04854518 5.5584237 0.37622518 11.1532563-0.3398163 16.68740741-6.35941925 0.75245037-12.7673837 0.18204445-19.13893925 0.26699852-21.85746963 0.04854518-43.71493925-0.09709037-65.57240889 0.10922667-2.29376-0.02427259-4.58752-0.08495408-6.84487111-0.42477038-0.58254222-21.69969778-0.0121363-43.46007703-0.23058963-65.18404741 0.27913482-10.40080592-0.47331555-20.82588445 0.21845333-31.20241777z"
    fill="#72aee2"/>
</svg>
