<svg xmlns="http://www.w3.org/2000/svg" version="1.1" viewBox="0 0 1024 1024" width="20" height="20">
  <path
    d="M873.40625003 316.53124998c0 311.48437497-204.60937506 535.78125001-505.54687503 545.62500001-127.26562502 9.84374999-214.45312507-28.828125-292.49999999-87.18749995 87.18750001 9.84374999 204.60937506-18.98437495 262.26562499-78.04687504-87.18750001 0-136.40624998-49.21874999-165.234375-116.01562499h78.046875C172.390625 551.37499999 113.32812503 493.01562505 113.32812503 395.984375c18.98437495 9.84374999 38.671875 18.98437495 78.04687494 18.98437497-68.20312502-38.671875-106.87499999-165.234375-58.35937498-243.28125004 87.18750001 97.03124998 194.06249999 184.921875 370.54687501 194.06250006-49.21874999-194.06249999 204.60937506-292.50000009 311.48437501-165.23437501 49.21874999-9.84374999 78.04687501-28.828125 116.01562499-49.21874997-9.84374999 49.21874999-38.671875 78.04687501-78.04687501 97.03125004 38.671875 0 68.20312502-9.84374999 97.03125001-28.82812504-9.14062501 38.671875-47.81250009 78.04687501-76.64062502 97.03124997z"
    fill="#4babde"/>
</svg>
