<svg xmlns="http://www.w3.org/2000/svg" version="1.1" viewBox="0 0 1024 1024" width="20" height="20">
  <path
    d="M219.96874982 90.125h584.06250036c71.24999991 0 129.37499973 57.65624973 129.84374982 128.90624963v585.93750074c-0.46875009 71.24999991-58.59374991 128.90624963-129.84374982 128.90624963H219.96874982C148.71874991 933.875 90.59375009 876.21875027 90.125 804.96875037v-585.93750074C90.59375009 147.78124973 148.71874991 90.125 219.96874982 90.125z"
    fill="#FC4514"/>
  <path
    d="M448.24999991 715.90625027c0 13.59375018-5.15625018 26.71875027-14.99999964 36.09374964-9.84375027 9.84375027-22.50000027 14.99999963-36.09375045 15.00000046h-44.06249955c24.84374991-4.21875001 43.12500019-25.78125009 44.06249955-51.0937501V310.43750019c0-13.59375018-11.24999973-24.84374991-24.84374991-24.84374992H296.37499991c-13.59375018 0-24.84374991 11.24999973-24.8437499 24.84374991v380.62500019c0 6.56249963 2.81249973 13.12500009 7.4999998 17.34374926s10.78124963 7.49999981 17.3437501 7.50000064h24.8437499c9.37500018-0.46875009 18.28125027 4.21875001 23.43750046 12.18749992 4.68750009 7.96874991 4.68750009 18.28125027 0 26.25000018-4.68750009 7.96874991-14.06250027 13.12500009-23.43750046 12.1874999H270.12499973c-13.59375018 0-26.71875027-5.15625018-36.09374964-15.00000045-9.84375027-9.84375027-14.99999963-22.50000027-15.00000046-36.09374963v-431.25000019c0.46875009-28.12499973 22.96875037-50.625 51.0937501-51.09375009h127.03125008c28.59374981 0.93750018 51.09375009 24.37499982 51.0937501 52.50000036v430.3125z m357.18749972-484.21875064c0 13.59375018-5.15625018 26.71875027-14.99999963 36.09375046-9.84375027 9.84375027-22.50000027 14.99999963-36.09374963 14.99999964h-178.59375028c-14.53125037 0-24.84374991 10.31250037-24.84374991 27.65625045v99.37499963H802.62499991c-0.46875009 23.90624973-17.34375009 44.53124963-40.78124972 49.68749982v281.25000055c0 13.59375018-5.15625018 26.71875027-15.00000046 36.09374963-9.37500018 9.37500018-22.50000027 14.99999963-36.09374964 15.00000046V459.96874973H547.62500037v282.1874999c0 13.59375018-5.62500027 26.71875027-15.00000046 36.09375046s-22.50000027 14.99999963-36.09374964 14.99999964V283.24999982c0.46875009-28.12499973 22.96875037-51.09375009 51.0937501-52.49999955h257.34375l0.46874926 0.93749936z"
    fill="#FFFFFF"/>
</svg>
