<svg xmlns="http://www.w3.org/2000/svg" version="1.1" viewBox="0 0 1024 1024" width="20" height="20">
  <path
    d="M542.8896875 558.333125s0-66.9253125-32.6053125-70.35937501c-32.6053125-3.4340625-133.8515625 0-133.8515625 2e-8V282.048125h151.010625s-1.715625-68.6428125-30.88968749-68.6428125H251.1584375l41.184375-109.82625s-61.7784375 3.4340625-84.08625 42.9009375-92.66625001 236.81625001-92.66625 236.81625001 24.0253125 10.2965625 63.493125-18.87562501c39.4696875-29.17125001 53.1965625-80.6559375 53.1965625-80.6559375l72.0740625-3.4340625 1.715625 209.35875s-125.2696875-1.715625-151.010625 0c-25.7409375 1.715625-39.4696875 70.359375-39.4696875 70.35937501h190.483125s-17.1628125 116.690625-65.2096875 200.77874999C191.095625 844.91375001 98.429375 911.838125 98.429375 911.838125s66.9253125 27.4565625 132.1378125-10.2965625c65.2096875-39.4696875 113.2603125-209.35874999 113.2603125-209.35875l152.73 190.483125s13.7278125-90.9496875-1.715625-116.690625c-17.1628125-25.7409375-106.396875-128.7028125-106.396875-128.7028125l-39.4696875 34.3190625 27.4565625-113.26031251h166.455zM582.359375 208.259375l-1.71562499 619.4934375h61.77843749l22.3078125 77.221875 108.1134375-77.221875h152.73V208.259375H582.363125z m274.565625 550.850625h-72.0740625l-90.94968749 70.359375-20.59218751-70.359375h-18.875625V278.6159375H856.925v480.4940625z"
    fill="#0077D6"/>
</svg>
