<svg xmlns="http://www.w3.org/2000/svg" version="1.1" width="200" height="200" viewBox="0 0 1024 1024">
  <path
    d="M343.4 557.6c-54.1 0.1-98 43.9-98.1 98.1 0.1 54.1 43.9 98 98.1 98.1 19.7 0 38.1-6 53.4-16 6.2-4 12-9 17.1-14.3 17.6-17.8 27.5-42.9 27.5-67.8 0-54.1-43.8-97.9-98-98.1z"
    fill="#5937ac"/>
  <path
    d="M859.3 64.2h-696c-55 0-100 45-100 100v696c0 55 45 100 100 100h696c55 0 100-45 100-100v-696c0-55-45-100-100-100z m2.3 722.2c-8.2 14-17.5 24.4-30.4 34.3-36.6 28.2-96.8 30.7-97.1 30.7v-0.1c-50.6-1-100.2-25.3-131.8-70.1-26.5-37.5-35.1-82.9-27.9-127.8 0-0.1 12.8-77.8 14.3-87.1 7-43.2 13.9-86.4 20.9-129.6 4.5-27.6 12.7-57.2 12.7-85.2 0-33.5-16.1-65.8-46.5-84.1-15.6-9.4-32.6-13.9-49.6-13.9-32.6 0.1-64.3 16.5-82.4 46.5-8.3 13.7-11.5 28.7-11.5 44.8 0 17.1 3.9 35 8.9 50.9L512 590.5c8.7 19.6 12.2 57 12.2 64 0 99.9-80.9 180.9-180.8 180.9-35.5 0-67.6-12.2-67.8-12.1-66.3-26.8-113-91.7-113-167.6 0-99.9 80.9-180.9 180.8-180.9 14 0 27.5 1.6 40.6 4.6l-21.7-59.8c-8.3-22.9-14.1-45.8-14.1-70.4 0-31.2 8.3-63 25.6-91.6 33.4-55.4 92.3-86.1 152.5-86.1 31.3 0 63.1 8.3 91.9 25.7 55.3 33.4 85.9 92.3 85.9 152.5 0 13.8-2 27.3-4.1 40.9-0.1 0-24.4 148.1-27 164.1-6.9 43.2-19.7 87.7-19.7 131.8-0.1 18 3.6 36.5 12.6 49.1 17.1 24.2 44 37.1 71.5 37.1 26.6-0.1 45.6-9.4 63.8-26.7 4-3.9 37.2-15.7 56 5.8 7.1 8 10.2 24.7 4.4 34.6z"
    fill="#5937ac"/>
</svg>
